<?xml version="1.0" encoding="utf-8"?>
<!-- Generator: Adobe Illustrator 25.4.1, SVG Export Plug-In . SVG Version: 6.00 Build 0)  -->
<svg version="1.1" id="_x31_0" xmlns="http://www.w3.org/2000/svg" xmlns:xlink="http://www.w3.org/1999/xlink" x="0px" y="0px"
	 viewBox="0 0 512 512" style="enable-background:new 0 0 512 512;" xml:space="preserve">
<style type="text/css">
	.st0{fill:#FFFFFF;}
</style>
<g>
	<path class="st0" d="M506.5,109.5c0.1-0.2,0.3-0.3,0.4-0.5c-14.7,6.5-30.2,11.2-46.4,14.2c-4,0.6-7.9,1.2-12,1.6
		c16.6-10.1,29.9-24.8,38.6-42.2c2.3-4.5,4.5-9.1,6.2-13.9c-0.1,0.1-0.2,0.1-0.4,0.2c0-0.2,0.1-0.3,0.2-0.5
		c-19.8,11.7-41.8,20.3-65.1,24.9c-18.7-19.9-45.4-32.4-74.9-32.4c-56.6,0-102.5,45.9-102.5,102.5c0,7.3,0.8,14.4,2.3,21.3
		c0.1,0.7,0.2,1.4,0.3,2.1C178.7,183,111.6,151.4,62.1,102c-7-7-13.7-14.4-19.9-22.2c0,0,0,0.1,0,0.1c-0.1-0.1-0.2-0.2-0.2-0.2
		C33,94.8,28,112.4,28,131.2c0,29.2,12.3,55.4,31.9,74.1c4.1,4,8.5,7.9,13.3,11.2c-16.6-0.6-32.3-5.2-46-12.8c0,0.4,0,0.9,0,1.3
		c0,41.3,24.6,76.6,59.8,92.9c6.9,3.3,14.2,6.1,21.9,7.8c-8.5,2.3-17.3,3.5-26.5,3.5c-5.3,0-10.5-0.5-15.6-1.3
		c-1.1-0.2-2.3-0.3-3.4-0.6c0,0.1,0,0.1,0.1,0.1c-0.1,0-0.2,0-0.4,0c11.4,35.7,41.9,62.8,79.4,69.6c5.3,1,10.6,1.6,16.1,1.8
		c-35,27.4-79.2,43.7-127.1,43.7c-6.9,0-13.7-0.5-20.5-1.2c-1.3-0.2-2.6-0.3-3.8-0.5c0.2,0.1,0.4,0.2,0.5,0.3c-0.2,0-0.5,0-0.7,0
		c45.4,29.1,99.3,46.1,157.2,46.1c92.3,0,164.1-37.5,213.4-91.6c0.4-0.5,0.9-0.9,1.3-1.4c5.3-5.9,10.3-12,15.1-18.3
		c1.1-1.5,2.3-3,3.4-4.5c4-5.5,7.8-11.2,11.5-16.9c1.5-2.3,2.9-4.6,4.3-6.9c3.2-5.4,6.2-10.9,9.1-16.5c1.3-2.6,2.7-5.1,3.9-7.7
		c2.9-6,5.5-12,7.9-18.1c0.8-2.1,1.7-4.1,2.5-6.1c2.8-7.4,5.3-14.9,7.5-22.5c0.2-0.6,0.4-1.2,0.5-1.8c7.6-26.4,11.4-53.4,11.4-79.5
		c0-4.4-0.1-8.9-0.3-13.3c15.9-11.5,30-25.3,42.1-40.7c3.2-3.9,6.3-7.9,9.2-12.1C506.8,109.3,506.7,109.4,506.5,109.5z"/>
</g>
</svg>
